<svg xmlns="http://www.w3.org/2000/svg"
 width="180.000000pt" height="180.000000pt" viewBox="0 0 180.000000 180.000000"
 preserveAspectRatio="xMidYMid meet">

<g transform="translate(0.000000,180.000000) scale(0.100000,-0.100000)"
fill="#000000" stroke="none">
<path d="M605 1615 c-21 -20 -25 -34 -25 -79 0 -115 2 -116 330 -116 328 0
330 1 330 123 0 38 -5 53 -25 72 l-24 25 -281 0 -281 0 -24 -25z m574 -39 c7
-8 11 -32 9 -53 l-3 -38 -275 0 -275 0 -3 38 c-6 68 -9 67 278 67 211 0 260
-3 269 -14z"/>
<path d="M445 1549 c-17 -4 -44 -22 -60 -39 l-30 -31 0 -599 0 -598 25 -27
c50 -55 53 -55 530 -55 477 0 480 0 530 55 l25 27 0 600 0 600 -36 32 c-43 40
-104 55 -127 32 -21 -21 0 -46 40 -46 17 0 39 -10 53 -25 l25 -24 0 -570 0
-570 -24 -28 -24 -28 -462 0 -462 0 -24 28 -24 28 0 568 c0 560 0 569 21 595
13 17 30 26 48 26 15 0 36 6 46 14 16 12 17 16 6 30 -15 18 -31 19 -76 5z"/>
<path d="M629 1266 l-32 -46 -20 20 c-15 17 -22 19 -33 9 -8 -6 -14 -16 -14
-21 0 -17 52 -78 66 -78 18 0 105 120 102 140 -6 31 -36 21 -69 -24z"/>
<path d="M795 1240 c-4 -6 -1 -18 6 -26 10 -12 50 -14 248 -12 228 3 236 4
236 23 0 19 -8 20 -242 23 -162 1 -244 -1 -248 -8z"/>
<path d="M630 1007 c-32 -45 -32 -45 -52 -25 -15 15 -22 17 -34 7 -8 -6 -14
-16 -14 -21 0 -17 52 -78 66 -78 18 0 105 120 102 140 -6 31 -36 21 -68 -23z"/>
<path d="M795 980 c-4 -6 -1 -18 6 -26 10 -12 50 -14 248 -12 228 3 236 4 236
23 0 19 -8 20 -242 23 -162 1 -244 -1 -248 -8z"/>
<path d="M629 746 c-31 -44 -33 -45 -46 -26 -17 24 -41 26 -49 5 -8 -19 41
-95 61 -95 19 0 107 120 103 140 -6 31 -36 21 -69 -24z"/>
<path d="M800 725 c-10 -12 -10 -18 0 -30 10 -13 50 -15 240 -15 190 0 230 2
240 15 10 12 10 18 0 30 -10 13 -50 15 -240 15 -190 0 -230 -2 -240 -15z"/>
<path d="M634 493 c-16 -21 -29 -40 -31 -42 -2 -2 -12 4 -23 14 -20 18 -50 15
-50 -7 0 -19 51 -88 66 -88 18 0 105 120 102 140 -6 29 -36 21 -64 -17z"/>
<path d="M800 465 c-10 -12 -10 -18 0 -30 19 -22 461 -22 480 0 10 12 10 18 0
30 -10 13 -50 15 -240 15 -190 0 -230 -2 -240 -15z"/>
</g>
</svg>
